<svg width="23" height="14" viewBox="0 0 23 14" fill="none" xmlns="http://www.w3.org/2000/svg">
<path d="M15.75 6C17.41 6 18.74 4.66 18.74 3C18.74 1.34 17.41 0 15.75 0C14.09 0 12.75 1.34 12.75 3C12.75 4.66 14.09 6 15.75 6ZM7.75 6C9.41 6 10.74 4.66 10.74 3C10.74 1.34 9.41 0 7.75 0C6.09 0 4.75 1.34 4.75 3C4.75 4.66 6.09 6 7.75 6ZM7.75 8C5.42 8 0.75 9.17 0.75 11.5V14H14.75V11.5C14.75 9.17 10.08 8 7.75 8ZM15.75 8C15.46 8 15.13 8.02 14.78 8.05C15.94 8.89 16.75 10.02 16.75 11.5V14H22.75V11.5C22.75 9.17 18.08 8 15.75 8Z" fill="black"/>
</svg>
